<?xml version="1.0" encoding="UTF-8" standalone="no"?>
<!-- Uploaded to: SVG Repo, www.svgrepo.com, Generator: SVG Repo Mixer Tools -->

<svg
   fill="#000000"
   height="800px"
   width="800px"
   version="1.1"
   id="Layer_1"
   viewBox="0 0 421.59 421.59"
   xml:space="preserve"
   sodipodi:docname="layer-svgrepo-com (1).svg"
   inkscape:version="1.3 (0e150ed6c4, 2023-07-21)"
   xmlns:inkscape="http://www.inkscape.org/namespaces/inkscape"
   xmlns:sodipodi="http://sodipodi.sourceforge.net/DTD/sodipodi-0.dtd"
   xmlns="http://www.w3.org/2000/svg"
   xmlns:svg="http://www.w3.org/2000/svg"><defs
   id="defs2" /><sodipodi:namedview
   id="namedview2"
   pagecolor="#ffffff"
   bordercolor="#000000"
   borderopacity="0.25"
   inkscape:showpageshadow="2"
   inkscape:pageopacity="0.0"
   inkscape:pagecheckerboard="0"
   inkscape:deskcolor="#d1d1d1"
   inkscape:zoom="0.74"
   inkscape:cx="399.32432"
   inkscape:cy="400"
   inkscape:window-width="1440"
   inkscape:window-height="830"
   inkscape:window-x="1913"
   inkscape:window-y="-6"
   inkscape:window-maximized="1"
   inkscape:current-layer="Layer_1" />&#10;<g
   id="g2">&#10;	<g
   id="g1">&#10;		<path
   d="M400.491,291.098l-58.865-36.976l58.864-36.971c2.185-1.372,3.511-3.771,3.511-6.351s-1.326-4.979-3.511-6.352    l-58.865-36.977l58.862-36.973c2.185-1.373,3.511-3.771,3.511-6.351s-1.326-4.979-3.511-6.351L214.783,1.149    c-2.438-1.532-5.54-1.532-7.979,0L21.1,117.796c-2.185,1.373-3.511,3.771-3.511,6.351c0,2.58,1.326,4.979,3.511,6.351    l58.861,36.972l-58.859,36.978c-2.185,1.373-3.51,3.771-3.51,6.351c0,2.58,1.326,4.979,3.511,6.351l58.859,36.97l-58.859,36.979    c-2.185,1.372-3.51,3.771-3.51,6.351c0,2.58,1.326,4.979,3.511,6.351l185.7,116.64c1.22,0.766,2.604,1.149,3.989,1.149    s2.77-0.383,3.989-1.149L400.491,303.8c2.185-1.372,3.511-3.771,3.511-6.351C404.002,294.869,402.676,292.47,400.491,291.098z     M39.189,124.147l171.605-107.79l171.604,107.79l-171.604,107.79L39.189,124.147z M39.191,210.798l54.869-34.471l112.744,70.818    c1.219,0.766,2.604,1.149,3.989,1.149c1.385,0,2.77-0.383,3.989-1.149l112.742-70.817l54.875,34.47L210.792,318.582    L39.191,210.798z M210.792,405.232L39.191,297.448l54.87-34.472l112.742,70.814c1.22,0.766,2.604,1.149,3.989,1.149    s2.77-0.383,3.989-1.149l112.744-70.812l54.876,34.47L210.792,405.232z"
   id="path1" />&#10;	</g>&#10;</g>&#10;<g
   id="g3"><path
     sodipodi:type="star"
     style="fill:#c832ff;fill-opacity:1;stroke-width:0.526987"
     id="path2"
     inkscape:flatsided="false"
     sodipodi:sides="5"
     sodipodi:cx="170.91486"
     sodipodi:cy="82.608856"
     sodipodi:r1="74.506866"
     sodipodi:r2="37.253433"
     sodipodi:arg1="0.6224717"
     sodipodi:arg2="1.2507902"
     inkscape:rounded="0"
     inkscape:randomized="0"
     d="m 231.4472,126.04972 -48.81344,-8.07866 -34.32809,35.63144 -7.40093,-48.92078 -44.495477,-21.637237 44.239417,-22.156056 6.82838,-49.003984 34.74239,35.22759 48.71564,-8.648895 -22.76744,43.927904 z"
     inkscape:transform-center-x="6.986624"
     inkscape:transform-center-y="0.13461591"
     transform="translate(40.59228,34.895118)" /></g></svg>
